<svg xmlns="http://www.w3.org/2000/svg" viewBox="0 0 32 32" fill="none">
  <path
    d="M29.883 6.022 16.618 29.764a1.2 1.2 0 0 1-2.235-.024L2.095 6.022a1.2 1.2 0 0 1 1.154-1.622h25.5a1.2 1.2 0 0 1 1.134 1.622Z"
    fill="url(#a)"
  />
  <path
    d="m22.264 2.222-9.996 17.319a.45.45 0 0 0 .384.673h4.3a.6.6 0 0 0 .518-.9L17.6 2.095a.6.6 0 0 0-1.038 0l-.298.127Z"
    fill="url(#b)"
  />
  <defs>
    <linearGradient id="a" x1="16" y1="4" x2="16" y2="30" gradientUnits="userSpaceOnUse">
      <stop stop-color="#41D1FF" />
      <stop offset="1" stop-color="#BD34FE" />
    </linearGradient>
    <linearGradient id="b" x1="17.5" y1="2" x2="15" y2="20" gradientUnits="userSpaceOnUse">
      <stop stop-color="#FFBD4F" />
      <stop offset="1" stop-color="#FF980E" />
    </linearGradient>
  </defs>
</svg>
